<svg width="42" height="42" viewBox="0 0 42 42" fill="none" xmlns="http://www.w3.org/2000/svg">
<rect x="0.0983887" width="41" height="42" rx="4" fill="white"/>
<path d="M11.9695 24H8.13745V18.1836H11.9695V18.8711H8.91089V20.4648H11.9695V21.1523H8.91089V23.3125H11.9695V24ZM18.3796 24H17.6062V18.9883L15.989 22.3984H15.5281L13.9226 18.9883V24H13.2V18.1836H14.2546L15.8054 21.4219L17.3054 18.1836H18.3796V24ZM23.7468 19.9414C23.7468 20.1992 23.7013 20.4388 23.6101 20.6602C23.5216 20.8789 23.3966 21.069 23.2351 21.2305C23.0346 21.431 22.7976 21.582 22.5242 21.6836C22.2507 21.7826 21.9057 21.832 21.489 21.832H20.7156V24H19.9421V18.1836H21.5203C21.8692 18.1836 22.1648 18.2135 22.407 18.2734C22.6492 18.3307 22.864 18.4219 23.0515 18.5469C23.2729 18.6953 23.4434 18.8802 23.5632 19.1016C23.6856 19.3229 23.7468 19.6029 23.7468 19.9414ZM22.9421 19.9609C22.9421 19.7604 22.907 19.5859 22.8367 19.4375C22.7664 19.2891 22.6596 19.168 22.5164 19.0742C22.3914 18.9935 22.2481 18.9362 22.0867 18.9023C21.9278 18.8659 21.726 18.8477 21.4812 18.8477H20.7156V21.1719H21.3679C21.6804 21.1719 21.9343 21.1445 22.1296 21.0898C22.325 21.0326 22.4838 20.9427 22.6062 20.8203C22.7286 20.6953 22.8145 20.5638 22.864 20.4258C22.9161 20.2878 22.9421 20.1328 22.9421 19.9609ZM28.9187 18.8711H26.8406V24H26.0671V18.8711H23.989V18.1836H28.9187V18.8711ZM33.8171 18.1836L31.7703 21.4492V24H30.9968V21.5312L28.9421 18.1836H29.7976L31.3875 20.7852L32.9929 18.1836H33.8171Z" fill="#707070"/>
</svg>
